<svg xmlns="http://www.w3.org/2000/svg" viewBox="0 0 150 150"><title>Boat</title><g style="isolation:isolate"><polyline points="108.022 80.713 116.092 76.999 128.528 75.879 128.803 78.914" style="fill:#fff"/><path d="M108.02268,81.21289a.5.5,0,0,1-.20947-.9541l8.06934-3.71338a.50491.50491,0,0,1,.16406-.044l12.436-1.1206a.50039.50039,0,0,1,.543.45264l.27539,3.03564a.5.5,0,0,1-.45263.54346.49478.49478,0,0,1-.54346-.45264l-.23-2.53808-11.85254,1.06787L108.23118,81.167A.4967.4967,0,0,1,108.02268,81.21289Z" style="fill:#2d2d2d"/><line x1="83.44046" y1="71.73539" x2="52.32013" y2="86.15024" style="fill:#fff"/><path d="M52.32054,86.65039a.49995.49995,0,0,1-.21045-.95361l31.1206-14.415a.49985.49985,0,1,1,.41992.90722L52.53,86.604A.49262.49262,0,0,1,52.32054,86.65039Z" style="fill:#2d2d2d"/><polygon points="93.765 81.947 83.44 71.735 53.956 85.392 93.765 81.947" style="fill:#fff"/><path d="M53.95579,85.89209a.49986.49986,0,0,1-.20947-.95361L83.23069,71.28174a.49916.49916,0,0,1,.56153.09814L94.116,81.59131a.49989.49989,0,0,1-.3086.85351l-39.8081,3.44532A.4328.4328,0,0,1,53.95579,85.89209ZM83.33567,72.335l-26.584,12.31348L92.64378,81.542Z" style="fill:#2d2d2d"/><line x1="80.17618" y1="73.24739" x2="87.91686" y2="82.45307" style="fill:#fff"/><path d="M87.91722,82.95312a.49966.49966,0,0,1-.3833-.17822l-7.74073-9.20556a.50009.50009,0,0,1,.76563-.64356l7.74072,9.20557a.5.5,0,0,1-.38232.82177Z" style="fill:#2d2d2d"/><line x1="69.27083" y1="78.29872" x2="72.54916" y2="83.78312" style="fill:#fff"/><path d="M72.54954,84.2832a.50015.50015,0,0,1-.42969-.24365l-3.27832-5.48437a.49993.49993,0,0,1,.8584-.5127l3.27832,5.48438a.5.5,0,0,1-.42871.75634Z" style="fill:#2d2d2d"/><path d="M127.18707,83.334c.21769-.29547.42572-.58234.61987-.85545Q127.515,82.88947,127.18707,83.334Z" style="fill:#e4b9e4"/><path d="M127.18675,83.834a.49974.49974,0,0,1-.40235-.79589q.156-.21242.3042-.41651.16041-.22119.31055-.43262a.50007.50007,0,0,1,.81543.57911q-.14576.20508-.30078.41894c-.104.14356-.21143.29053-.3208.43945l-.00293.00342v.00049A.49914.49914,0,0,1,127.18675,83.834Z" style="fill:#0a3360"/><path d="M127.8759,82.38114c.20592-.29111.401-.571.57986-.83308Q128.18642,81.94271,127.8759,82.38114Z" style="fill:#e4b9e4"/><path d="M127.87522,82.88135a.5.5,0,0,1-.40771-.78858v-.00048h0l.00146-.002q.18238-.2578.35205-.50195.11427-.16479.22168-.32227a.5.5,0,0,1,.82618.56348h0l-.001.002c-.07275.10645-.14844.21582-.22607.32764q-.16994.24535-.3545.50586l-.00341.00488v.00049A.49967.49967,0,0,1,127.87522,82.88135Z" style="fill:#0a3360"/><path d="M120.862,90.73177a67.99862,67.99862,0,0,0,4.54056-5.083A67.78012,67.78012,0,0,1,120.862,90.73177Z" style="fill:#e4b9e4"/><path d="M120.862,91.23193a.5.5,0,0,1-.35547-.85156q.8855-.89649,1.74365-1.83252c.94678-1.03418,1.86621-2.102,2.74756-3.19385l.01563-.019h0a.5.5,0,0,1,.77832.62793c-.90869,1.126-1.85889,2.23047-2.84131,3.30078q-.8518.928-1.73047,1.81738l-.00244.00245h0A.49915.49915,0,0,1,120.862,91.23193Z" style="fill:#0a3360"/><path d="M126.37493,84.41279c.24781-.32217.48526-.63623.70907-.93851Q126.74758,83.92824,126.37493,84.41279Z" style="fill:#e4b9e4"/><path d="M126.37425,84.9126a.50009.50009,0,0,1-.396-.80469q.36914-.48047.70459-.93164a.5.5,0,0,1,.80322.5957h-.00048l-.00245.00391c-.22509.30322-.46338.61914-.7124.94189A.499.499,0,0,1,126.37425,84.9126Z" style="fill:#0a3360"/><path d="M89.32473,106.49781C62.60667,108.75114,30.09443,109.5,30.09443,109.5L23.77592,99.3621c30.11347-2.78719,77.35674-6.78542,97.0837-8.62821C113.98807,97.685,103.40106,105.31066,89.32473,106.49781Z" style="fill:#8fd8f2"/><path d="M30.09446,110a.50015.50015,0,0,1-.42431-.23535l-6.31836-10.1377a.50042.50042,0,0,1,.37841-.76269c16.07276-1.4878,37.3208-3.34619,56.06788-4.98584,16.3623-1.43115,31.81787-2.78321,41.01513-3.64258a.5.5,0,0,1,.40186.84961c-6.50635,6.58154-17.313,14.68457-31.84815,15.91064h0C62.93919,109.22461,30.43138,109.99219,30.10618,110ZM24.62913,99.78564l5.73877,9.20752c3.27148-.08105,33.83789-.8789,58.915-2.99316h0c13.52-1.14062,23.76465-8.37793,30.23242-14.63916-9.32031.8623-24.06494,2.15234-39.63037,3.51367C61.45188,96.48682,40.59934,98.31055,24.62913,99.78564Zm64.6958,6.71241h0Z" style="fill:#2d2d2d"/><path d="M21.3482,95.46671,19.79358,92.9724,28.163,87.62464,130.20642,78.793s-.59375,1.06018-1.7476,2.75083c-.10966.01036-77.82929,7.325-108.66524,11.42858Z" style="fill:#259ed9"/><path d="M21.34886,95.9668a.49975.49975,0,0,1-.42481-.23535l-1.55469-2.49463-.001-.002h0l-.001-.00146v-.00049a.49737.49737,0,0,1-.06543-.35107h0v-.00147l.00049-.001h0a.37375.37375,0,0,1,.00928-.04052h0l.00049-.001v-.001l.00048-.00048a.4964.4964,0,0,1,.21192-.28565l8.36914-5.34766a.4975.4975,0,0,1,.22607-.07666l102.04346-8.83154a.49985.49985,0,0,1,.479.74219c-.02441.04443-.61767,1.09912-1.7705,2.78857a.50119.50119,0,0,1-.36622.21631c-.76464.07129-76.69238,7.22266-107.87744,11.32422l1.14453,1.83594a.5.5,0,0,1-.42382.76465Zm6.97949-7.855-6.37451,4.07324c31.1416-4.01416,101.58593-10.67969,106.22363-11.1167.4668-.69043.83447-1.2666,1.09814-1.69287Z" style="fill:#2d2d2d"/><path d="M125.41453,85.63359q.45714-.56692.8705-1.103Q125.871,85.067,125.41453,85.63359Z" style="fill:#e4b9e4"/><path d="M125.4138,86.13379a.5.5,0,0,1-.38867-.814q.227-.28125.44287-.55468.21606-.27393.42138-.54a.50005.50005,0,0,1,.79151.61133q-.20655.26733-.42383.54248-.21827.27757-.44873.5625l-.00488.00634h0A.49952.49952,0,0,1,125.4138,86.13379Z" style="fill:#0a3360"/><polygon points="23.489 98.901 23.504 98.926 23.44 98.823 23.489 98.901" style="fill:#e4b9e4"/><path d="M23.50462,99.42627a.49906.49906,0,0,1-.42432-.23486l-.06445-.103a.5.5,0,0,1,.84668-.53223l.05371.08545.01514.0249a.49964.49964,0,0,1-.42676.75977Z" style="fill:#0a3360"/><path d="M125.40253,85.64877l.012-.01518Z" style="fill:#fff"/><path d="M125.40306,86.13867a.49665.49665,0,0,1-.40479-.78369l.02539-.03369a.50024.50024,0,1,1,.78125.625A.51719.51719,0,0,1,125.40306,86.13867Zm-.25635-.69922-.13135-.10693Z" style="fill:#0a3360"/><polygon points="120.86 90.734 120.86 90.734 120.862 90.732 120.86 90.734" style="fill:#fff"/><path d="M120.86009,91.2334a.5.5,0,0,1-.396-.80469.49994.49994,0,1,1,.396.80469Zm.00195-.50147h0Z" style="fill:#0a3360"/><polygon points="23.776 99.362 23.504 98.926 23.776 99.362 23.776 99.362" style="fill:#fff"/><path d="M23.77659,99.8623a.49971.49971,0,0,1-.4248-.23535l-.272-.436a.50009.50009,0,0,1,.84864-.5293l.272.436a.5.5,0,0,1-.42383.76464Z" style="fill:#0a3360"/><polygon points="128.459 81.544 128.456 81.548 128.459 81.544 128.459 81.544" style="fill:#fff"/><path d="M128.45579,82.04785a.49995.49995,0,0,1-.35352-.85351.45905.45905,0,0,1,.66358-.10254.487.487,0,0,1,.20312.41064.57858.57858,0,0,1-.09423.31885.53984.53984,0,0,1-.06543.08008A.49842.49842,0,0,1,128.45579,82.04785Z" style="fill:#0a3360"/><polygon points="21.585 95.847 21.348 95.467 23.44 98.823 21.585 95.847" style="fill:#fff"/><path d="M23.44017,99.32324a.49972.49972,0,0,1-.42481-.23535L21.16087,96.1123l-.00049-.00048-.23682-.38086a.50016.50016,0,0,1,.84912-.52881L23.864,98.55859a.5.5,0,0,1-.42382.76465Z" style="fill:#0a3360"/><path d="M126.285,84.53058c.03083-.03989.05954-.07825.0899-.11779C126.34434,84.45256,126.3161,84.49045,126.285,84.53058Z" style="fill:#fff"/><path d="M126.2844,85.03076a.50008.50008,0,0,1-.396-.80469l.39648.30469-.396-.30517.04589-.06055.00342-.0044.02588-.03369.00147.001a.529.529,0,0,1,.68994-.08691.47235.47235,0,0,1,.11816.67334l-.09277.12158A.499.499,0,0,1,126.2844,85.03076Zm.48731-.31445h0Z" style="fill:#0a3360"/><path d="M127.80694,82.47857l.069-.09743Z" style="fill:#fff"/><path d="M127.80638,82.97852a.494.494,0,0,1-.28907-.09278.5.5,0,0,1-.11914-.6958l.03076-.043.04834.02539-.04-.03711a.52334.52334,0,0,1,.71142-.1416.47822.47822,0,0,1,.13623.67481l-.00195.00293h0l-.0166.02343-.05078.07227-.00245.00244A.49874.49874,0,0,1,127.80638,82.97852Zm-.40577-.791.40625.291Z" style="fill:#0a3360"/><path d="M127.084,83.47428l.10307-.14026C127.15224,83.3812,127.1193,83.4265,127.084,83.47428Z" style="fill:#fff"/><path d="M127.0847,83.94482a.469.469,0,0,1-.27979-.08935.47754.47754,0,0,1-.124-.67676l.105-.14258a.49986.49986,0,0,1,.80322.59522l-.10156.13818-.002-.002A.54791.54791,0,0,1,127.0847,83.94482Zm-.40332-.7666.40283.2959Z" style="fill:#0a3360"/><path d="M23.43986,98.82306,21.3482,95.46671,19.79358,92.9724c30.836-4.10354,108.55558-11.41822,108.66524-11.42858l-.00306.00424c-.17885.262-.37394.542-.57986.83308l-.069.09743c-.19415.27311-.40218.56-.61987.85545l-.10307.14026c-.22381.30228-.46126.61634-.70907.93851-.03036.03954-.05907.0779-.0899.11779q-.41406.53585-.8705,1.103l-.012.01518a67.99862,67.99862,0,0,1-4.54056,5.083l-.00235.00212c-19.727,1.84279-66.97023,5.841-97.0837,8.62821l-.27181-.436-.0153-.02471Z" style="fill:#fff"/><path d="M23.7761,99.8623a.49977.49977,0,0,1-.42431-.23535l-.272-.436-.06445-.103-3.646-5.85107a.5001.5001,0,0,1,.3584-.76026C50.43235,88.39062,127.64085,81.11865,128.41184,81.0459a.50027.50027,0,0,1,.4629.77539.53984.53984,0,0,1-.06543.08008c-.12061.19238-.31739.47461-.52539.76855l-.06934.09815c-.19531.2749-.40576.56445-.62451.8623l-.10254.13916q-.34131.4607-.7168.94824l-.09033.11866q-.41675.53979-.877,1.11132a68.62651,68.62651,0,0,1-4.58594,5.13575.5103.5103,0,0,1-.31152.14843c-9.2002.85938-24.65674,2.21094-41.021,3.64258-18.74561,1.63965-39.99268,3.498-56.063,4.98584C23.80686,99.86182,23.79124,99.8623,23.7761,99.8623Zm.0874-1.30419.17383.27783C40.073,97.353,61.17015,95.50781,79.79808,93.87842c16.25585-1.42188,31.61572-2.76563,40.834-3.62549,1.52734-1.55371,3.001-3.20752,4.38135-4.918.31494-.39014.60205-.75586.876-1.10986l.48536.1875-.396-.30518c.24609-.31933.48144-.63135.70361-.93115l.103-.13965c.21484-.292.42139-.57666.61377-.84766l.47656.19239-.34961-.24707c-9.02441.854-77.64551,7.38476-106.89795,11.23193Z" style="fill:#2d2d2d"/><polygon points="26.954 104 114.02 96.26 120.862 90.271 23.776 98.901 26.954 104" style="fill:#2d2d2d"/></g></svg>