<svg xmlns="http://www.w3.org/2000/svg" width="150" height="150" viewBox="0 0 150 150"><title>asset</title><rect x="24.5" y="51.55144" width="62" height="4" rx="0.5" fill="#fff"/><path d="M86,52.05144v3H25v-3H86m0-1H25a1,1,0,0,0-1,1v3a1,1,0,0,0,1,1H86a1,1,0,0,0,1-1v-3A1,1,0,0,0,86,51.05144Z" fill="#2d2d2d"/><rect x="84.5" y="51.55144" width="13" height="4" rx="0.5" fill="#8fd8f2"/><path d="M97,52.05144v3H85v-3H97m0-1H85a1,1,0,0,0-1,1v3a1,1,0,0,0,1,1H97a1,1,0,0,0,1-1v-3A1,1,0,0,0,97,51.05144Z" fill="#2d2d2d"/><line x1="29.5" y1="55.55144" x2="29.5" y2="59.607" fill="none" stroke="#2d2d2d" stroke-linecap="round" stroke-linejoin="round"/><line x1="46.5" y1="55.55144" x2="46.5" y2="59.607" fill="none" stroke="#2d2d2d" stroke-linecap="round" stroke-linejoin="round"/><line x1="64.5" y1="55.55144" x2="64.5" y2="59.607" fill="none" stroke="#2d2d2d" stroke-linecap="round" stroke-linejoin="round"/><line x1="81.5" y1="55.55144" x2="81.5" y2="59.607" fill="none" stroke="#2d2d2d" stroke-linecap="round" stroke-linejoin="round"/><line x1="94.5" y1="55.55144" x2="94.5" y2="59.607" fill="none" stroke="#2d2d2d" stroke-linecap="round" stroke-linejoin="round"/><path d="M56.07959,106.0656c-2.856,0-5.1792-3.16992-5.1792-7.06689,0-3.83838,2.30029-6.96143,5.12744-6.96143h2.77344c2.82715,0,5.12744,3.123,5.12744,6.96143,0,3.897-2.28662,7.06689-5.09766,7.06689Z" fill="#2d2d2d"/><path d="M58.80122,92.55144c2.54778,0,4.61335,2.88669,4.61335,6.44716,0,3.561-2.03551,6.55284-4.58329,6.55284H56.0794c-2.548,0-4.66483-2.99189-4.66483-6.55284,0-3.56047,2.06535-6.44716,4.61335-6.44716h2.7733m0-1.02855h-2.7733c-3.111,0-5.6419,3.35359-5.6419,7.47572,0,4.18039,2.554,7.58138,5.69338,7.58138h2.75188c3.09438,0,5.61184-3.401,5.61184-7.58138C64.44312,94.87648,61.91217,91.52289,58.80122,91.52289Z" fill="#2d2d2d"/><path d="M114.22656,106.009a6.78092,6.78092,0,0,1-6.68739-6.87317q.00095-.0693.00331-.13855a6.95773,6.95773,0,0,1,13.915,0A7.2194,7.2194,0,0,1,114.22656,106.009Z" fill="#2d2d2d"/><path d="M114.5,92.55144a6.473,6.473,0,0,1,6.5,6.44562,6.806,6.806,0,0,1-6.77332,6.55438,6.33746,6.33746,0,0,1-6.22952-6.4436q.00093-.05539.00284-.11078a6.473,6.473,0,0,1,6.5-6.44562m0-.91529a7.39662,7.39662,0,0,0-7.41529,7.36091,7.23349,7.23349,0,0,0,6.99288,7.46633q.07453.00243.14912.00334a7.6831,7.6831,0,0,0,7.6886-7.46967A7.39661,7.39661,0,0,0,114.5,91.63615Z" fill="#2d2d2d"/><path d="M41,100.55144a.49971.49971,0,0,1-.5-.49942V60.05144a.49971.49971,0,0,1,.49942-.5H95.894a15.1421,15.1421,0,0,1,10.77735,4.46436l16.625,16.6245,4.00634,2.00342a7.55231,7.55231,0,0,1,4.19731,6.791v7.3477a3.77348,3.77348,0,0,1-3.769,3.769Z" fill="#8fd8f2"/><path d="M95.89381,60.05144a14.74158,14.74158,0,0,1,10.42391,4.31772L123,81.05144l4.07932,2.03967A7.09256,7.09256,0,0,1,131,89.43488v7.34729a3.26925,3.26925,0,0,1-3.26923,3.26927H41v-40H95.89381m0-1H41a1,1,0,0,0-1,1v40a1,1,0,0,0,1,1h86.73074A4.27411,4.27411,0,0,0,132,96.78218v-7.3473a8.0484,8.0484,0,0,0-4.47346-7.23819l-3.93418-1.96709L107.02483,63.66205A15.63851,15.63851,0,0,0,95.89381,59.05144Z" fill="#2d2d2d"/><polygon points="90 66.551 109.592 66.533 122.5 80.551 104.99 80.629 90 66.551" fill="#fff"/><path d="M95.89381,60.05144a14.74158,14.74158,0,0,1,10.42391,4.31772L123,81.05144l4.07932,2.03967A7.09256,7.09256,0,0,1,131,89.43488v7.34729a3.26925,3.26925,0,0,1-3.26923,3.26927H41v-40H95.89381m0-1H41a1,1,0,0,0-1,1v40a1,1,0,0,0,1,1h86.73074A4.27411,4.27411,0,0,0,132,96.78218v-7.3473a8.0484,8.0484,0,0,0-4.47346-7.23819l-3.93418-1.96709L107.02483,63.66205A15.63851,15.63851,0,0,0,95.89381,59.05144Z" fill="#2d2d2d"/><path d="M37.1792,106.50017c-2.82764,0-5.12793-3.36621-5.12793-7.50342,0-4.07715,2.271-7.394,5.062-7.394h2.77344c2.791,0,5.062,3.31689,5.062,7.394,0,4.13721-2.30029,7.50342-5.12744,7.50342Z" fill="#2d2d2d"/><path d="M39.88665,92.05144c2.54778,0,4.61335,3.10973,4.61335,6.94534,0,3.83614-2.131,7.05466-4.67881,7.05466H37.179c-2.548,0-4.679-3.21852-4.679-7.05466,0-3.83561,2.06531-6.94534,4.61335-6.94534h2.7733m0-.89712h-2.7733c-3.09,0-5.51047,3.44482-5.51047,7.84246,0,4.38462,2.50143,7.95178,5.57609,7.95178h2.64222c3.07458,0,5.57593-3.56716,5.57593-7.95178C45.39712,94.59914,42.97663,91.15432,39.88665,91.15432Z" fill="#2d2d2d"/><ellipse cx="37" cy="99.05144" rx="3.51611" ry="5.01611" fill="#fff"/><path d="M37,94.55144c1.65685,0,3,2.01471,3,4.5s-1.34315,4.5-3,4.5-3-2.01472-3-4.5,1.34315-4.5,3-4.5m0-1.032c-2.26093,0-4.032,2.42994-4.032,5.532s1.77107,5.532,4.032,5.532,4.032-2.42994,4.032-5.532S39.26093,93.51944,37,93.51944Z" fill="#2d2d2d"/><path d="M46.98584,100.55144A2.48877,2.48877,0,0,1,44.5,98.0656v-.51416a6,6,0,0,0-12,0v1.27979a1.7219,1.7219,0,0,1-1.72021,1.72021,4.7917,4.7917,0,0,1-1.686-.30566L24.71391,98.6032A4.97659,4.97659,0,0,1,21.5,93.9655V64.58318a5.03756,5.03756,0,0,1,5.03174-5.03174H76.894A15.1421,15.1421,0,0,1,87.67135,64.0158l16.625,16.6245,4.00634,2.00342a7.55231,7.55231,0,0,1,4.19731,6.791v7.3477a3.77348,3.77348,0,0,1-3.769,3.769Z" fill="#8fd8f2"/><path d="M76.89381,60.05144a14.74158,14.74158,0,0,1,10.42391,4.31772L104,81.05144l4.07932,2.03967A7.09256,7.09256,0,0,1,112,89.43488v7.34729a3.26925,3.26925,0,0,1-3.26923,3.26927H46.986A1.986,1.986,0,0,1,45,98.06544h0v-.514a6.5,6.5,0,0,0-6.5-6.5h0a6.5,6.5,0,0,0-6.5,6.5h0v1.2799a1.22009,1.22009,0,0,1-1.22011,1.2201h0a4.30094,4.30094,0,0,1-1.51013-.27384L24.88943,98.135A4.453,4.453,0,0,1,22,93.96553V64.58308a4.53162,4.53162,0,0,1,4.53162-4.53164H76.89381m0-1H26.53164A5.5379,5.5379,0,0,0,21,64.58308V93.96553a5.4783,5.4783,0,0,0,3.53831,5.10578l4.38033,1.64262a5.28328,5.28328,0,0,0,1.86125.33751A2.22262,2.22262,0,0,0,33,98.83133V97.55144a5.5,5.5,0,0,1,11,0v.514a2.9894,2.9894,0,0,0,2.986,2.986h61.74474A4.27409,4.27409,0,0,0,113,96.78218v-7.3473a8.04842,8.04842,0,0,0-4.47346-7.23819l-3.93418-1.96709L88.02483,63.66205A15.63851,15.63851,0,0,0,76.89381,59.05144Z" fill="#2d2d2d"/><line x1="22" y1="93.55144" x2="131" y2="93.55144" fill="none" stroke="#2d2d2d" stroke-linecap="round" stroke-linejoin="round"/><path d="M22,90.55144a.49971.49971,0,0,1-.5-.49942V84.05144a.49971.49971,0,0,1,.49942-.5h1.79941A1.70315,1.70315,0,0,1,25.5,85.25261v3.59766a1.70315,1.70315,0,0,1-1.70117,1.70117Z" fill="#fff"/><path d="M23.79866,84.05144A1.20133,1.20133,0,0,1,25,85.25277v3.59734a1.20134,1.20134,0,0,1-1.20134,1.20133H22v-6h1.79866m0-1H22a1,1,0,0,0-1,1v6a1,1,0,0,0,1,1h1.79866A2.20384,2.20384,0,0,0,26,88.85011V85.25277A2.20383,2.20383,0,0,0,23.79866,83.05144Z" fill="#2d2d2d"/><path d="M94.29538,75.93288l-8.973-9.39918H75.34659a.8466.8466,0,0,0-.84659.8466v9.05535a5.95856,5.95856,0,0,0,5.95856,5.95857q.07758,0,.15515-.002L94,82.05144Z" fill="#fff"/><path d="M85,67.05144l14,15H80.5592A5.5592,5.5592,0,0,1,75,76.49224V67.55271a.50127.50127,0,0,1,.50127-.50127H85m0-1H75.50127A1.503,1.503,0,0,0,74,67.55271v8.93953a6.56662,6.56662,0,0,0,6.5592,6.5592H99a1,1,0,0,0,.73106-1.68232l-14-15A.99994.99994,0,0,0,85,66.05144Z" fill="#2d2d2d"/><line x1="79.6175" y1="86.55144" x2="75.38874" y2="86.55144" fill="none" stroke="#2d2d2d" stroke-linecap="round" stroke-linejoin="round"/><line x1="105" y1="80.55144" x2="123" y2="80.55144" fill="none" stroke="#2d2d2d" stroke-linecap="round" stroke-linejoin="round"/><line x1="90.5" y1="66.55144" x2="108.57408" y2="66.53371" fill="none" stroke="#2d2d2d" stroke-linecap="round" stroke-linejoin="round"/><path d="M93,84.55144a1.50164,1.50164,0,0,1-1.5-1.5v-9a1.5,1.5,0,0,1,3,0v9A1.50164,1.50164,0,0,1,93,84.55144Z" fill="#8fd8f2"/><path d="M93,73.05144a1,1,0,0,1,1,1v9a1,1,0,1,1-2,0v-9a1,1,0,0,1,1-1m0-1a2.00227,2.00227,0,0,0-2,2v9a2,2,0,1,0,4,0v-9A2.00227,2.00227,0,0,0,93,72.05144Z" fill="#2d2d2d"/><path d="M96.5249,106.009a6.95754,6.95754,0,1,1,6.93262-7.01172A6.95755,6.95755,0,0,1,96.5249,106.009Z" fill="#2d2d2d"/><path d="M96.5,92.55144A6.50024,6.50024,0,1,1,90,99.10636q-.00046-.05466,0-.1093a6.473,6.473,0,0,1,6.5-6.44562m0-.91529a7.41531,7.41531,0,1,0,7.41549,7.41513l-.0002-.05422A7.39662,7.39662,0,0,0,96.5,91.63615Z" fill="#2d2d2d"/><circle cx="96.5" cy="99.05144" r="4.5" fill="#fff" stroke="#2d2d2d" stroke-linecap="round" stroke-linejoin="round" stroke-width="0.93577"/><line x1="18" y1="69.55144" x2="68" y2="69.55144" fill="none" stroke="#2d2d2d" stroke-linecap="round" stroke-linejoin="round"/><line x1="68" y1="79.55144" x2="18" y2="79.55144" fill="none" stroke="#2d2d2d" stroke-linecap="round" stroke-linejoin="round"/><line x1="62.5" y1="69.55144" x2="62.5" y2="79.05144" fill="none" stroke="#2d2d2d" stroke-linecap="round" stroke-linejoin="round"/><line x1="55.5" y1="69.55144" x2="55.5" y2="79.05144" fill="none" stroke="#2d2d2d" stroke-linecap="round" stroke-linejoin="round"/><line x1="48.5" y1="69.55144" x2="48.5" y2="79.05144" fill="none" stroke="#2d2d2d" stroke-linecap="round" stroke-linejoin="round"/><line x1="41.5" y1="69.55144" x2="41.5" y2="79.05144" fill="none" stroke="#2d2d2d" stroke-linecap="round" stroke-linejoin="round"/><line x1="34.5" y1="69.55144" x2="34.5" y2="79.05144" fill="none" stroke="#2d2d2d" stroke-linecap="round" stroke-linejoin="round"/><line x1="27.41667" y1="69.55144" x2="27.41667" y2="79.05144" fill="none" stroke="#2d2d2d" stroke-linecap="round" stroke-linejoin="round"/><line x1="21.5" y1="69.55144" x2="21.5" y2="79.05144" fill="none" stroke="#2d2d2d" stroke-linecap="round" stroke-linejoin="round"/><path d="M129.16162,89.55144a.50012.50012,0,0,1-.416-.22266l-2-3a.50009.50009,0,0,1-.04493-.4707l.83838-2a.5.5,0,0,1,.65447-.26772l.03009.01381a6.93834,6.93834,0,0,1,2.76367,3.1006,5.25487,5.25487,0,0,1,.5127,2.34667.49971.49971,0,0,1-.49942.5h-1.839Z" fill="#fff"/><path d="M128,84.05144a6.46561,6.46561,0,0,1,2.53929,2.87477A4.8002,4.8002,0,0,1,131,89.05144h-1.83835l-2-3,.83835-2m0-1a1,1,0,0,0-.92223.61342l-.83834,2a1,1,0,0,0,.09021.94127l2,3a1,1,0,0,0,.832.4453H131a1,1,0,0,0,1-1,5.75272,5.75272,0,0,0-.56387-2.56756,7.47565,7.47565,0,0,0-2.98891-3.32686A.99989.99989,0,0,0,128,83.05144Z" fill="#2d2d2d"/><path d="M110.96777,90.55144a2.59529,2.59529,0,0,1-2.55664-2.2173l-.74463-5.2119a.50022.50022,0,0,1,.71875-.51807l8,4a.49939.49939,0,0,1,.25049.60547l-1,3a.49944.49944,0,0,1-.47412.3418Z" fill="#fff"/><path d="M108.16165,83.05144l8,4-1,3.00005H110.968a2.08268,2.08268,0,0,1-2.06175-1.78816l-.7446-5.21189m.00012-1a.99995.99995,0,0,0-.99006,1.14143l.74455,5.21188a3.09783,3.09783,0,0,0,3.05174,2.64669h4.19371a1,1,0,0,0,.94867-.68379l1-3a1,1,0,0,0-.50147-1.21064l-8-4A.99883.99883,0,0,0,108.16177,82.05144Z" fill="#2d2d2d"/></svg>